<mxfile host="app.diagrams.net" modified="2020-09-20T12:33:32.355Z" agent="5.0 (Windows NT 10.0; Win64; x64) AppleWebKit/537.36 (KHTML, like Gecko) Chrome/85.0.4183.102 Safari/537.36" etag="8-KFplqQo1v8GmLaM52Q" version="13.6.10" type="github">
  <diagram id="udBf88IxDhJN101Ms67t" name="第 1 页">
    <mxGraphModel dx="834" dy="446" grid="1" gridSize="10" guides="1" tooltips="1" connect="1" arrows="1" fold="1" page="1" pageScale="1" pageWidth="3300" pageHeight="4681" math="0" shadow="0">
      <root>
        <mxCell id="0" />
        <mxCell id="1" parent="0" />
        <mxCell id="ZD0VNRk8lztMJTUi11Ai-29" value="" style="group" parent="1" vertex="1" connectable="0">
          <mxGeometry x="110" y="570" width="480" height="380" as="geometry" />
        </mxCell>
        <mxCell id="ZD0VNRk8lztMJTUi11Ai-17" value="" style="group" parent="ZD0VNRk8lztMJTUi11Ai-29" vertex="1" connectable="0">
          <mxGeometry width="480" height="380" as="geometry" />
        </mxCell>
        <mxCell id="ZD0VNRk8lztMJTUi11Ai-18" value="" style="group" parent="ZD0VNRk8lztMJTUi11Ai-17" vertex="1" connectable="0">
          <mxGeometry width="480" height="380" as="geometry" />
        </mxCell>
        <mxCell id="ZD0VNRk8lztMJTUi11Ai-19" value="" style="group" parent="ZD0VNRk8lztMJTUi11Ai-18" vertex="1" connectable="0">
          <mxGeometry width="480" height="380" as="geometry" />
        </mxCell>
        <mxCell id="ZD0VNRk8lztMJTUi11Ai-20" value="" style="rounded=0;whiteSpace=wrap;html=1;" parent="ZD0VNRk8lztMJTUi11Ai-19" vertex="1">
          <mxGeometry width="480" height="380" as="geometry" />
        </mxCell>
        <mxCell id="ZD0VNRk8lztMJTUi11Ai-21" value="欢迎信息" style="rounded=0;whiteSpace=wrap;html=1;" parent="ZD0VNRk8lztMJTUi11Ai-19" vertex="1">
          <mxGeometry width="480" height="41.45454545454545" as="geometry" />
        </mxCell>
        <mxCell id="ZD0VNRk8lztMJTUi11Ai-22" value="主导航区" style="rounded=0;whiteSpace=wrap;html=1;" parent="ZD0VNRk8lztMJTUi11Ai-19" vertex="1">
          <mxGeometry y="41.45454545454545" width="480" height="69.0909090909091" as="geometry" />
        </mxCell>
        <mxCell id="ZD0VNRk8lztMJTUi11Ai-23" value="左侧图书分类导航区" style="rounded=0;whiteSpace=wrap;html=1;" parent="ZD0VNRk8lztMJTUi11Ai-19" vertex="1">
          <mxGeometry y="110.54545454545455" width="88.42105263157893" height="234.90909090909088" as="geometry" />
        </mxCell>
        <mxCell id="ZD0VNRk8lztMJTUi11Ai-24" value="广告轮番图" style="rounded=0;whiteSpace=wrap;html=1;" parent="ZD0VNRk8lztMJTUi11Ai-19" vertex="1">
          <mxGeometry x="88.42105263157893" y="110.54545454545455" width="284.2105263157894" height="82.9090909090909" as="geometry" />
        </mxCell>
        <mxCell id="ZD0VNRk8lztMJTUi11Ai-25" value="新书速递" style="rounded=0;whiteSpace=wrap;html=1;" parent="ZD0VNRk8lztMJTUi11Ai-19" vertex="1">
          <mxGeometry x="88.42105263157893" y="193.45454545454544" width="284.2105263157894" height="152" as="geometry" />
        </mxCell>
        <mxCell id="ZD0VNRk8lztMJTUi11Ai-26" value="畅销榜" style="rounded=0;whiteSpace=wrap;html=1;" parent="ZD0VNRk8lztMJTUi11Ai-19" vertex="1">
          <mxGeometry x="372.63157894736844" y="110.54545454545455" width="107.36842105263156" height="117.45454545454544" as="geometry" />
        </mxCell>
        <mxCell id="ZD0VNRk8lztMJTUi11Ai-27" value="优惠区" style="rounded=0;whiteSpace=wrap;html=1;" parent="ZD0VNRk8lztMJTUi11Ai-19" vertex="1">
          <mxGeometry x="372.63157894736844" y="228" width="107.36842105263156" height="117.45454545454544" as="geometry" />
        </mxCell>
        <mxCell id="ZD0VNRk8lztMJTUi11Ai-28" value="友情链接区域" style="rounded=0;whiteSpace=wrap;html=1;" parent="ZD0VNRk8lztMJTUi11Ai-19" vertex="1">
          <mxGeometry y="345.4545454545455" width="480" height="34.54545454545455" as="geometry" />
        </mxCell>
        <mxCell id="ZD0VNRk8lztMJTUi11Ai-30" value="" style="group" parent="1" vertex="1" connectable="0">
          <mxGeometry x="110" y="1070" width="480" height="380" as="geometry" />
        </mxCell>
        <mxCell id="ZD0VNRk8lztMJTUi11Ai-31" value="" style="group" parent="ZD0VNRk8lztMJTUi11Ai-30" vertex="1" connectable="0">
          <mxGeometry x="2" width="480" height="380" as="geometry" />
        </mxCell>
        <mxCell id="ZD0VNRk8lztMJTUi11Ai-32" value="" style="group" parent="ZD0VNRk8lztMJTUi11Ai-31" vertex="1" connectable="0">
          <mxGeometry y="10" width="480" height="380" as="geometry" />
        </mxCell>
        <mxCell id="ZD0VNRk8lztMJTUi11Ai-33" value="" style="group" parent="ZD0VNRk8lztMJTUi11Ai-32" vertex="1" connectable="0">
          <mxGeometry y="20" width="480" height="380" as="geometry" />
        </mxCell>
        <mxCell id="ZD0VNRk8lztMJTUi11Ai-34" value="" style="rounded=0;whiteSpace=wrap;html=1;" parent="ZD0VNRk8lztMJTUi11Ai-33" vertex="1">
          <mxGeometry width="480" height="380" as="geometry" />
        </mxCell>
        <mxCell id="ZD0VNRk8lztMJTUi11Ai-35" value="欢迎信息" style="rounded=0;whiteSpace=wrap;html=1;" parent="ZD0VNRk8lztMJTUi11Ai-33" vertex="1">
          <mxGeometry width="480" height="41.45454545454545" as="geometry" />
        </mxCell>
        <mxCell id="ZD0VNRk8lztMJTUi11Ai-36" value="主导航区" style="rounded=0;whiteSpace=wrap;html=1;" parent="ZD0VNRk8lztMJTUi11Ai-33" vertex="1">
          <mxGeometry y="41.45454545454545" width="480" height="69.0909090909091" as="geometry" />
        </mxCell>
        <mxCell id="ZD0VNRk8lztMJTUi11Ai-37" value="左侧图书分类导航区" style="rounded=0;whiteSpace=wrap;html=1;" parent="ZD0VNRk8lztMJTUi11Ai-33" vertex="1">
          <mxGeometry y="110.54545454545455" width="88.42105263157893" height="234.90909090909088" as="geometry" />
        </mxCell>
        <mxCell id="ZD0VNRk8lztMJTUi11Ai-40" value="图书展示" style="rounded=0;whiteSpace=wrap;html=1;" parent="ZD0VNRk8lztMJTUi11Ai-33" vertex="1">
          <mxGeometry x="88" y="110.55" width="392" height="239.45" as="geometry" />
        </mxCell>
        <mxCell id="ZD0VNRk8lztMJTUi11Ai-42" value="友情链接区域" style="rounded=0;whiteSpace=wrap;html=1;" parent="ZD0VNRk8lztMJTUi11Ai-33" vertex="1">
          <mxGeometry y="345.4545454545455" width="480" height="34.54545454545455" as="geometry" />
        </mxCell>
        <mxCell id="rdiq5sueJG9lHKGKMkp4-1" value="" style="rounded=0;whiteSpace=wrap;html=1;" vertex="1" parent="1">
          <mxGeometry x="120" y="1590" width="490" height="340" as="geometry" />
        </mxCell>
        <mxCell id="rdiq5sueJG9lHKGKMkp4-2" value="登录人信息" style="rounded=0;whiteSpace=wrap;html=1;" vertex="1" parent="1">
          <mxGeometry x="120" y="1590" width="490" height="40" as="geometry" />
        </mxCell>
        <mxCell id="rdiq5sueJG9lHKGKMkp4-3" value="左侧导航栏" style="rounded=0;whiteSpace=wrap;html=1;" vertex="1" parent="1">
          <mxGeometry x="120" y="1630" width="130" height="300" as="geometry" />
        </mxCell>
        <mxCell id="rdiq5sueJG9lHKGKMkp4-4" value="内容区" style="rounded=0;whiteSpace=wrap;html=1;" vertex="1" parent="1">
          <mxGeometry x="250" y="1630" width="360" height="300" as="geometry" />
        </mxCell>
      </root>
    </mxGraphModel>
  </diagram>
</mxfile>
